<svg xmlns="http://www.w3.org/2000/svg" viewBox="0 0 512 512">
  <!-- Tooth shape -->
  <path d="M256 48c-50 0-88 18-112 42-24 24-38 54-44 88-8 42-2 84 12 126 14 42 32 84 44 126 8 28 18 52 34 66 14 12 30 10 40-10 12-26 20-60 30-86 6-16 14-28 24-28s18 12 24 28c10 26 18 60 30 86 10 20 26 22 40 10 16-14 26-38 34-66 12-42 30-84 44-126 14-42 20-84 12-126-6-34-20-64-44-88-24-24-62-42-112-42h-56z" fill="#0ea5e9"/>
  <!-- Highlight/shine -->
  <ellipse cx="200" cy="160" rx="36" ry="44" fill="#bae6fd" opacity="0.5" transform="rotate(-10 200 160)"/>
</svg>
